<svg viewBox="0 0 64 64" xmlns="http://www.w3.org/2000/svg">
<rect width="64" height="64" rx="14" fill="#0f1117"/>
<rect x="6" y="44" width="8" height="5" rx="1.5" fill="#2dd4bf"/>
<rect x="6" y="38" width="8" height="5" rx="1.5" fill="#2dd4bf"/>
<rect x="6" y="32" width="8" height="5" rx="1.5" fill="#2dd4bf"/>
<rect x="17" y="44" width="8" height="5" rx="1.5" fill="#2dd4bf"/>
<rect x="17" y="38" width="8" height="5" rx="1.5" fill="#2dd4bf"/>
<rect x="17" y="32" width="8" height="5" rx="1.5" fill="#2dd4bf"/>
<rect x="17" y="26" width="8" height="5" rx="1.5" fill="#2dd4bf"/>
<rect x="28" y="44" width="8" height="5" rx="1.5" fill="#2dd4bf"/>
<rect x="28" y="38" width="8" height="5" rx="1.5" fill="#2dd4bf"/>
<rect x="28" y="32" width="8" height="5" rx="1.5" fill="#2dd4bf"/>
<rect x="28" y="26" width="8" height="5" rx="1.5" fill="#2dd4bf"/>
<rect x="28" y="20" width="8" height="5" rx="1.5" fill="#2dd4bf"/>
<rect x="39" y="44" width="8" height="5" rx="1.5" fill="#2dd4bf"/>
<rect x="39" y="38" width="8" height="5" rx="1.5" fill="#2dd4bf"/>
<rect x="39" y="32" width="8" height="5" rx="1.5" fill="#2dd4bf"/>
<rect x="39" y="26" width="8" height="5" rx="1.5" fill="#2dd4bf"/>
<rect x="39" y="20" width="8" height="5" rx="1.5" fill="#2dd4bf"/>
<rect x="39" y="14" width="8" height="5" rx="1.5" fill="#2dd4bf"/>
<rect x="50" y="44" width="8" height="5" rx="1.5" fill="#2dd4bf"/>
<rect x="50" y="38" width="8" height="5" rx="1.5" fill="#2dd4bf"/>
<rect x="50" y="32" width="8" height="5" rx="1.5" fill="#2dd4bf"/>
<rect x="50" y="26" width="8" height="5" rx="1.5" fill="#2dd4bf"/>
</svg>
